<?xml version="1.0" encoding="iso-8859-1"?>
<!-- Generator: Adobe Illustrator 18.1.1, SVG Export Plug-In . SVG Version: 6.00 Build 0)  -->
<svg version="1.1" id="Capa_1" xmlns="http://www.w3.org/2000/svg" xmlns:xlink="http://www.w3.org/1999/xlink" x="0px" y="0px"
	 viewBox="0 0 225.011 225.011" style="enable-background:new 0 0 225.011 225.011;" xml:space="preserve">
<g>
	<g>
		<path style="fill:#010002;" d="M151.97,57.598c0.161-2.094,0.465-4.815,1.122-7.101c0.591-2.041,2.369-3.855,2.244-5.991
			c-12.524,5.967-21.827,17.041-21.326,34.787c-10.687-11.826-21.982-27.907-23.187-49.74c-0.68-12.28,2.816-20.138,5.609-29.554
			c-0.37,0-0.746,0-1.122,0C97.326,10.967,86.884,31.917,91.371,60.218c1.05,6.641,3.896,13.879,3.741,21.326
			c-0.173,8.151-2.464,14.159-5.985,20.198c3.306-18.271-1.802-37.723-15.335-43.761c1.528,13.807,2.494,25.007-2.244,34.411
			c-1.158,2.303-2.87,4.284-4.111,6.355c-3.771,6.313-6.874,13.879-8.228,23.199c0,2.989,0,5.985,0,8.974
			c1.39,8.914,5.048,15.955,10.317,21.505c5.543-8.777,13.658-15.764,23.324-19.804c2.357-6.57,4.583-13.139,2.643-20.395
			c4.606,2.894,8.652,8.258,7.101,16.075c2.208,0.406,3.556-2.399,4.869-4.105c4.684-6.092,9.821-14.75,8.598-26.559
			c-0.251-2.381-1.563-5-1.498-7.101c6.241,4.487,9.995,10.991,10.096,20.568c0.072,5.991-3.007,12.536-2.619,18.497
			c1.456,0.286,2.882,0.638,4.302,1.038c-0.012-1.026,0.024-2.065,0.197-3.067c0.692-4.254,3.556-7.506,5.603-8.604
			c0.137,5.096-0.806,9.81,1.11,14.165c8.855,3.968,16.373,10.358,21.678,18.39c5.501-5.991,9.326-13.64,10.872-23.575
			c0-3.246,0-6.48,0-9.726C163.421,98.388,150.365,79.807,151.97,57.598z"/>
		<path style="fill:#010002;" d="M121.479,184.167c-1.39-1.002-3.741-1.957-7.041-2.852v20.818c4.511-0.221,7.626-1.862,9.338-4.953
			c0.895-1.587,1.343-3.419,1.343-5.501C125.119,188.386,123.908,185.88,121.479,184.167z"/>
		<path style="fill:#010002;" d="M103.233,157.722c-1.474,1.981-2.214,4.057-2.214,6.217c0,2.613,0.871,4.654,2.613,6.134
			c1.742,1.48,4.099,2.506,7.047,3.091V154.56C107.189,154.691,104.713,155.747,103.233,157.722z"/>
		<path style="fill:#010002;" d="M112.517,134.016c-25.126,0-45.497,20.359-45.497,45.497c0,25.126,20.371,45.497,45.497,45.497
			s45.497-20.371,45.497-45.497S137.644,134.016,112.517,134.016z M125.4,204.699c-2.53,1.641-6.182,2.721-10.961,3.252v7.673
			h-3.759v-7.673c-7.673-0.495-12.888-3.216-15.633-8.151c-1.504-2.661-2.25-6.265-2.25-10.812h6.999
			c0.215,3.61,0.788,6.259,1.718,7.924c1.647,2.972,4.708,4.642,9.171,5.012v-21.558c-5.722-1.086-9.953-2.888-12.686-5.424
			c-2.733-2.53-4.099-6.044-4.099-10.532c0-4.01,1.474-7.62,4.415-10.836c2.942-3.216,7.065-4.857,12.369-4.905v-5.269h3.759v5.185
			c5.251,0.364,9.278,1.909,12.083,4.636c2.81,2.715,4.278,6.325,4.415,10.8h-6.922c-0.185-2.005-0.722-3.735-1.617-5.179
			c-1.665-2.667-4.314-4.075-7.954-4.195v19.273c6.122,1.707,10.275,3.324,12.465,4.827c3.562,2.482,5.34,6.14,5.34,11.003
			C132.244,196.769,129.964,201.752,125.4,204.699z"/>
	</g>
</g>
<g>
</g>
<g>
</g>
<g>
</g>
<g>
</g>
<g>
</g>
<g>
</g>
<g>
</g>
<g>
</g>
<g>
</g>
<g>
</g>
<g>
</g>
<g>
</g>
<g>
</g>
<g>
</g>
<g>
</g>
</svg>
