<svg width="357.2374267578125px" height="122.021240234375px" xmlns="http://www.w3.org/2000/svg" viewBox="71.38128662109375 13.9893798828125 357.2374267578125 122.021240234375" style="background: rgba(0, 0, 0, 0);" preserveAspectRatio="xMidYMid"><defs><filter id="editing-jagged" x="-100%" y="-100%" width="300%" height="300%"><feTurbulence result="turb" baseFrequency="0.1" numOctaves="1" seed="1"></feTurbulence><feDisplacementMap in="SourceGraphic" in2="turb" scale="10"></feDisplacementMap></filter></defs><g filter="url(#editing-jagged)"><g transform="translate(127.88500398397446, 98.7578125)"><path d="M27.84-9.86L27.84-9.86L27.84-9.86Q29.06-8.32 29.06-5.34L29.06-5.34L29.06-5.34Q29.06-2.37 26.78-0.54L26.78-0.54L26.78-0.54Q24.51 1.28 20.54 1.28L20.54 1.28L20.54 1.28Q18.24 1.28 14.66 0.77L14.66 0.77L14.66 0.77Q7.62-0.32 5.60-0.32L5.60-0.32L5.60-0.32Q3.58-0.32 2.75-0.22L2.75-0.22L2.75-0.22Q1.92-0.13 0.58 0L0.58 0L8.32-42.24L22.34-42.24L15.94-7.04L15.94-7.04Q16.77-6.91 17.54-6.91L17.54-6.91L19.14-6.91L19.14-6.91Q24.51-6.91 27.84-9.86ZM33.22-1.60L32.83-9.47L40.83-15.62L45.82-19.71L45.82-19.71Q48.38-21.89 50.24-23.81L50.24-23.81L50.24-23.81Q53.63-27.20 53.63-30.46L53.63-30.46L53.63-30.46Q53.63-32.38 52.38-33.41L52.38-33.41L52.38-33.41Q51.14-34.43 49.31-34.43L49.31-34.43L49.31-34.43Q47.49-34.43 46.18-34.02L46.18-34.02L46.18-34.02Q44.86-33.60 43.71-32.90L43.71-32.90L43.71-32.90Q41.28-31.30 40.13-28.86L40.13-28.86L40.13-28.86Q38.53-28.93 37.47-30.27L37.47-30.27L37.47-30.27Q36.42-31.62 36.42-33.57L36.42-33.57L36.42-33.57Q36.42-35.52 37.63-37.34L37.63-37.34L37.63-37.34Q38.85-39.17 41.02-40.58L41.02-40.58L41.02-40.58Q45.76-43.52 52.26-43.52L52.26-43.52L52.26-43.52Q58.75-43.52 62.40-40.70L62.40-40.70L62.40-40.70Q66.05-37.89 66.05-33.09L66.05-33.09L66.05-33.09Q66.05-29.50 64.29-26.24L64.29-26.24L64.29-26.24Q62.53-22.98 57.86-19.65L57.86-19.65L50.94-14.78L46.78-12.03L41.47-8.77L43.71-8.51L43.71-8.51Q45.25-8.32 47.94-8.32L47.94-8.32L47.94-8.32Q50.62-8.32 52.86-8.61L52.86-8.61L52.86-8.61Q55.10-8.90 57.02-9.47L57.02-9.47L57.02-9.47Q61.25-10.62 62.59-12.22L62.59-12.22L62.59-12.22Q63.30-11.71 63.84-10.40L63.84-10.40L63.84-10.40Q64.38-9.09 64.38-7.49L64.38-7.49L64.38-7.49Q64.38-2.69 60.74-0.70L60.74-0.70L60.74-0.70Q57.09 1.28 49.60 1.28L49.60 1.28L49.60 1.28Q45.70 1.28 40.51 0.16L40.51 0.16L40.51 0.16Q35.33-0.96 33.22-1.60L33.22-1.60ZM115.84-13.25L115.84-13.25L115.84-13.25Q117.50-12.03 117.50-9.44L117.50-9.44L117.50-9.44Q117.50-6.85 116.38-5.02L116.38-5.02L116.38-5.02Q115.26-3.20 113.09-1.79L113.09-1.79L113.09-1.79Q108.42 1.22 100.26 1.22L100.26 1.22L100.26 1.22Q92.10 1.22 87.65-3.04L87.65-3.04L87.65-3.04Q83.20-7.30 83.20-14.85L83.20-14.85L83.20-14.85Q83.20-25.54 88.77-33.66L88.77-33.66L88.77-33.66Q92.99-39.68 100.54-42.24L100.54-42.24L100.54-42.24Q104.45-43.52 108.29-43.52L108.29-43.52L108.29-43.52Q112.13-43.52 114.50-43.01L114.50-43.01L114.50-43.01Q116.86-42.50 118.66-41.47L118.66-41.47L118.66-41.47Q122.56-39.23 122.56-35.65L122.56-35.65L122.56-35.65Q122.56-32.38 119.49-29.95L119.49-29.95L119.49-29.95Q116.67-27.78 114.37-27.78L114.37-27.78L114.37-27.78Q112.06-27.78 111.10-28.10L111.10-28.10L111.10-28.10Q111.36-30.40 111.36-31.90L111.36-31.90L111.36-31.90Q111.36-33.41 111.30-34.50L111.30-34.50L111.30-34.50Q111.23-35.58 110.91-36.61L110.91-36.61L110.91-36.61Q110.27-38.98 108.32-38.98L108.32-38.98L108.32-38.98Q106.37-38.98 104.42-37.15L104.42-37.15L104.42-37.15Q102.46-35.33 100.80-32.26L100.80-32.26L100.80-32.26Q97.02-25.28 97.02-17.02L97.02-17.02L97.02-17.02Q97.02-13.06 99.26-10.78L99.26-10.78L99.26-10.78Q101.50-8.51 106.30-8.51L106.30-8.51L106.30-8.51Q109.89-8.51 113.28-10.88L113.28-10.88L113.28-10.88Q114.75-11.90 115.84-13.25ZM125.60-1.92L125.60-1.92L125.60-1.92Q124.10-3.58 123.42-6.21L123.42-6.21L123.42-6.21Q122.75-8.83 122.75-13.12L122.75-13.12L122.75-13.12Q122.75-17.41 124.22-21.31L124.22-21.31L124.22-21.31Q125.70-25.22 128.38-28.03L128.38-28.03L128.38-28.03Q133.89-33.92 142.98-33.92L142.98-33.92L142.98-33.92Q146.24-33.92 148.61-32.83L148.61-32.83L159.55-33.92L154.82-8.96L154.82-8.96Q154.62-8.19 154.62-6.78L154.62-6.78L154.62-6.78Q154.62-5.38 155.49-4.48L155.49-4.48L155.49-4.48Q156.35-3.58 157.63-3.46L157.63-3.46L157.63-3.46Q156.99-1.28 154.66 0L154.66 0L154.66 0Q152.32 1.28 149.70 1.28L149.70 1.28L149.70 1.28Q147.07 1.28 145.31 0.29L145.31 0.29L145.31 0.29Q143.55-0.70 143.04-2.37L143.04-2.37L143.04-2.37Q142.02-0.77 139.84 0.26L139.84 0.26L139.84 0.26Q137.66 1.28 134.75 1.28L134.75 1.28L134.75 1.28Q131.84 1.28 129.47 0.51L129.47 0.51L129.47 0.51Q127.10-0.26 125.60-1.92ZM139.10-27.90L139.10-27.90L139.10-27.90Q138.37-26.75 137.73-24.80L137.73-24.80L137.73-24.80Q137.09-22.85 136.03-17.63L136.03-17.63L136.03-17.63Q134.98-12.42 134.98-8.70L134.98-8.70L134.98-8.70Q134.98-4.99 135.55-3.90L135.55-3.90L135.55-3.90Q136.13-2.82 137.15-2.82L137.15-2.82L137.15-2.82Q139.20-2.82 140.70-4.77L140.70-4.77L140.70-4.77Q142.21-6.72 142.78-10.18L142.78-10.18L146.18-28.93L146.18-28.93Q144.83-30.08 143.26-30.08L143.26-30.08L143.26-30.08Q141.70-30.08 140.77-29.57L140.77-29.57L140.77-29.57Q139.84-29.06 139.10-27.90ZM164.03-6.40L164.03-6.40L164.03-6.40Q164.03-8.13 164.93-12.48L164.93-12.48L168.32-29.76L164.54-29.76L164.80-31.68L164.80-31.68Q172.48-33.98 179.90-39.62L179.90-39.62L182.98-39.62L181.44-32.64L186.43-32.64L185.86-29.76L180.93-29.76L177.66-12.48L177.66-12.48Q176.83-8.51 176.83-7.17L176.83-7.17L176.83-7.17Q176.83-4.10 179.52-3.46L179.52-3.46L179.52-3.46Q178.88-1.28 176.58 0L176.58 0L176.58 0Q174.27 1.28 171.01 1.28L171.01 1.28L171.01 1.28Q167.74 1.28 165.89-0.77L165.89-0.77L165.89-0.77Q164.03-2.82 164.03-6.40ZM201.47-3.52L201.47-3.52L201.47-3.52Q199.49 1.28 193.15 1.28L193.15 1.28L193.15 1.28Q189.89 1.28 187.84-0.96L187.84-0.96L187.84-0.96Q186.11-2.94 186.11-4.93L186.11-4.93L186.11-4.93Q186.11-10.11 188.48-20.22L188.48-20.22L190.85-32.64L203.84-33.92L199.94-13.70L199.94-13.70Q198.85-8.96 198.85-7.30L198.85-7.30L198.85-7.30Q198.85-3.65 201.47-3.52ZM192-41.54L192-41.54L192-41.54Q192-44.03 194.08-45.38L194.08-45.38L194.08-45.38Q196.16-46.72 199.17-46.72L199.17-46.72L199.17-46.72Q202.18-46.72 204-45.38L204-45.38L204-45.38Q205.82-44.03 205.82-41.54L205.82-41.54L205.82-41.54Q205.82-39.04 203.81-37.76L203.81-37.76L203.81-37.76Q201.79-36.48 198.78-36.48L198.78-36.48L198.78-36.48Q195.78-36.48 193.89-37.76L193.89-37.76L193.89-37.76Q192-39.04 192-41.54ZM209.70-1.92L209.70-1.92L209.70-1.92Q208.19-3.58 207.52-6.21L207.52-6.21L207.52-6.21Q206.85-8.83 206.85-13.12L206.85-13.12L206.85-13.12Q206.85-17.41 208.32-21.31L208.32-21.31L208.32-21.31Q209.79-25.22 212.48-28.03L212.48-28.03L212.48-28.03Q217.98-33.92 227.07-33.92L227.07-33.92L227.07-33.92Q230.34-33.92 232.70-32.83L232.70-32.83L243.65-33.92L238.91-8.96L238.91-8.96Q238.72-8.19 238.72-6.78L238.72-6.78L238.72-6.78Q238.72-5.38 239.58-4.48L239.58-4.48L239.58-4.48Q240.45-3.58 241.73-3.46L241.73-3.46L241.73-3.46Q241.09-1.28 238.75 0L238.75 0L238.75 0Q236.42 1.28 233.79 1.28L233.79 1.28L233.79 1.28Q231.17 1.28 229.41 0.29L229.41 0.29L229.41 0.29Q227.65-0.70 227.14-2.37L227.14-2.37L227.14-2.37Q226.11-0.77 223.94 0.26L223.94 0.26L223.94 0.26Q221.76 1.28 218.85 1.28L218.85 1.28L218.85 1.28Q215.94 1.28 213.57 0.51L213.57 0.51L213.57 0.51Q211.20-0.26 209.70-1.92ZM223.20-27.90L223.20-27.90L223.20-27.90Q222.46-26.75 221.82-24.80L221.82-24.80L221.82-24.80Q221.18-22.85 220.13-17.63L220.13-17.63L220.13-17.63Q219.07-12.42 219.07-8.70L219.07-8.70L219.07-8.70Q219.07-4.99 219.65-3.90L219.65-3.90L219.65-3.90Q220.22-2.82 221.25-2.82L221.25-2.82L221.25-2.82Q223.30-2.82 224.80-4.77L224.80-4.77L224.80-4.77Q226.30-6.72 226.88-10.18L226.88-10.18L230.27-28.93L230.27-28.93Q228.93-30.08 227.36-30.08L227.36-30.08L227.36-30.08Q225.79-30.08 224.86-29.57L224.86-29.57L224.86-29.57Q223.94-29.06 223.20-27.90Z" fill="#444"></path></g></g><style>text {
  font-size: 64px;
  font-family: Arial Black;
  dominant-baseline: central;
  text-anchor: middle;
}</style></svg>