<?xml version="1.0" encoding="iso-8859-1"?>
<!-- Generator: Adobe Illustrator 18.1.1, SVG Export Plug-In . SVG Version: 6.00 Build 0)  -->
<svg version="1.1" id="Capa_1" xmlns="http://www.w3.org/2000/svg" xmlns:xlink="http://www.w3.org/1999/xlink" x="0px" y="0px"
	 viewBox="0 0 179.003 179.003" style="enable-background:new 0 0 179.003 179.003;" xml:space="preserve">
<g>
	<g>
		<g>
			<path style="fill:#010002;" d="M70.763,34.092c-1.45,0-2.637,1.128-2.637,2.518s1.187,2.524,2.637,2.524h37.442
				c1.456,0,2.637-1.134,2.637-2.524s-1.181-2.518-2.637-2.518H70.763z"/>
			<path style="fill:#010002;" d="M104.326,30.238c1.748-9.237,8.336-21.881,8.336-21.881S84.851-4.323,78.394,1.555
				c-2.608,2.369,3.801,11.409,1.426,14.028c-2.255,2.506-13.527,0-13.527,0s4.344,7.858,6.373,14.655H104.326z"/>
		</g>
		<g>
			<polygon style="fill:#010002;" points="100.197,95.772 89.463,115.498 78.788,95.772 72.284,95.772 79.934,108.797 
				74.713,108.797 74.713,112.747 82.255,112.747 86.002,119.12 76.097,119.12 76.097,123.07 86.7,123.07 86.7,136.836 
				92.226,136.836 92.226,123.07 103.133,123.07 103.133,119.12 92.936,119.12 96.683,112.747 104.082,112.747 104.082,108.797 
				99.028,108.797 106.719,95.772 			"/>
			<path style="fill:#010002;" d="M109.362,42.869c-0.37,0.066-0.764,0.113-1.152,0.113h-37.43c-0.668,0-1.307-0.131-1.915-0.316
				c-26.004,24.763-40.109,61.918-40.109,84.324c-0.006,28.725,29.315,52.013,60.743,52.013s60.749-23.289,60.749-52.013
				C150.247,104.322,135.724,70.621,109.362,42.869z M89.499,146.311c-16.576,0-30.013-13.437-30.013-30.013
				s13.437-30.013,30.013-30.013S119.5,99.722,119.5,116.298S106.075,146.311,89.499,146.311z"/>
		</g>
	</g>
</g>
<g>
</g>
<g>
</g>
<g>
</g>
<g>
</g>
<g>
</g>
<g>
</g>
<g>
</g>
<g>
</g>
<g>
</g>
<g>
</g>
<g>
</g>
<g>
</g>
<g>
</g>
<g>
</g>
<g>
</g>
</svg>
